<svg width="390" height="510" viewBox="0 0 390 510" fill="none" xmlns="http://www.w3.org/2000/svg">
<g clip-path="url(#clip0_283_5594)">
<rect width="390" height="510" fill="#1F1F1F"/>
<path fill-rule="evenodd" clip-rule="evenodd" d="M63.2376 467.218H74.4244L77.0059 474.755L72.7033 482.849L43.1588 480.058L25.3747 470.847L22.2195 461.357L35.1273 425.352L27.0958 368.413L35.1273 350.27L60.9429 330.733L107.698 310.916L190.308 305.054L225.589 295.564L238.784 298.356L256.568 310.916L297.012 309.799L307.338 315.381L322.541 303.38L329.138 313.707V324.313L339.178 334.361L349.791 340.502V355.853L364.133 370.087L359.256 375.67L351.799 387.671L336.309 393.812L288.407 377.065L259.149 393.812L244.234 407.209L243.086 435.4L236.776 455.775V463.59L252.552 466.102L256.568 475.034L251.118 481.174H221.286L197.479 446.843L164.779 472.522L157.034 468.893L145.274 477.267L126.629 478.383L104.543 471.126L85.0374 433.167L60.9429 462.474L63.2376 467.218ZM162.771 418.095C152.254 418.467 130.989 419.211 130.071 419.211L126.629 454.379L132.653 460.241H154.166L168.221 435.958L162.771 418.095Z" fill="#774299"/>
<path d="M166.148 510.362C212.024 404.485 406.112 -28.7652 421.5 -50H-91.5L-115.74 510.362H166.148Z" fill="#FAFAFA"/>
<path fill-rule="evenodd" clip-rule="evenodd" d="M256.906 307.208H253.231L249.504 304.295L238.418 295.629L238.219 295.473L237.971 295.431L225.249 293.254L225.033 293.217L224.821 293.274L189.834 302.683L107.417 309.207L107.265 309.219L107.124 309.275L63.1437 326.872L63.0334 326.916L62.9365 326.985L32.7679 348.391L32.5556 348.542L32.4437 348.777L23.7203 367.099L23.5892 367.375L23.6341 367.676L32.3201 426.02L18.9587 462.608L18.8325 462.953L18.9602 463.298L22.0497 471.643L22.177 471.986L22.4961 472.166L39.2161 481.6L39.3968 481.702L39.6032 481.723L72.4978 485.17L73.9652 485.324L73.5645 483.904L69.9297 471.024L69.7605 470.424L69.1476 470.312L60.7533 468.773L58.1416 463.099L82.0188 433.778L100.417 471.732L100.462 471.825L100.525 471.906L109.34 483.335L109.64 483.724H110.132H146.933H147.675L147.89 483.014L150.92 472.987L164.307 483.511L165.054 484.098L165.679 483.382L190.483 454.944L193.306 448.664L164.796 481.351L151.73 471.08L171.904 440.699L194.221 446.629L195.503 443.777L167.492 418.054H199.756L196.341 441.914L199.305 435.322L201.699 418.597L205.847 420.771L206.669 418.944L203.629 417.351L207.908 416.188L208.969 413.826L201.399 415.884L187.199 390.591L229.457 368.258L230.791 365.291L187.794 388.015L206.378 342.592L210.536 332.429H224.736L233.476 339.271L236.956 351.579L238.232 348.742L235.408 338.755L249.292 306.668L251.943 308.74L252.844 316.243L254.434 312.706L254.014 309.208H256.006L256.906 307.208ZM109.006 311.087L187.475 304.876L164.201 329.281L132.685 362.328L109.006 311.087ZM106.986 311.485L130.248 361.821L65.8967 327.925L106.986 311.485ZM34.1376 349.872L62.5806 329.69L64.635 388.459L25.931 367.108L34.1376 349.872ZM80.2959 397.098L70.2902 391.578L131.233 396.734L128.152 415.675L80.2959 397.098ZM135.101 394.467C134.424 394.585 133.85 394.675 133.394 394.736V367.622L148.193 391.72C145.801 392.267 142.669 392.962 139.79 393.557C138.058 393.915 136.425 394.236 135.101 394.467ZM150.312 391.348L135.047 366.491L181.976 389.419L150.312 391.348ZM247.664 305.395L233.946 337.099L226.08 330.941V295.425L237.385 297.36L247.664 305.395ZM224.08 299.324V330.429H211.355L224.08 299.324ZM199.201 416.054L185.26 391.222L151.498 393.279L165.484 416.054H199.201ZM140.195 395.516C143.364 394.86 146.832 394.086 149.298 393.519L163.137 416.054H130.117L133.254 396.769C133.852 396.701 134.608 396.583 135.445 396.437C136.798 396.201 138.455 395.876 140.195 395.516ZM129.786 418.054H164.174L170.378 439.382L149.911 470.203L127.145 466.424L123.784 453.653L129.786 418.054ZM166.885 420.211L193.063 444.252L172.27 438.727L166.885 420.211ZM126.179 468.291L149.1 472.096L146.19 481.724H110.624L102.701 471.453L122.191 455.46L125.376 467.559L125.54 468.185L126.179 468.291ZM84.4807 434.271L101.663 469.718L120.973 453.873L84.4807 434.271ZM84.7874 432.166L122.007 452.158L127.682 418.504L84.7874 432.166ZM83.1433 430.591L125.938 416.961L80.9786 399.508L83.1433 430.591ZM65.213 391.062L77.9122 398.067C70.5893 402.721 60.2267 409.239 51.2749 414.728C46.4997 417.655 42.1322 420.286 38.8437 422.183C37.1979 423.132 35.8326 423.892 34.8256 424.412C34.5758 424.541 34.3515 424.654 34.153 424.75L25.9099 369.381L65.213 391.062ZM21.3278 461.951L33.594 428.362L55.1429 461.951H21.3278ZM21.3345 463.951H54.6075L39.5273 479.479L23.7981 470.605L21.3345 463.951ZM71.2389 483.027L41.8589 479.949L56.674 464.694L59.1537 470.081L59.3709 470.553L59.8818 470.646L68.1741 472.167L71.2389 483.027ZM80.3105 432.708L57.0688 461.249L35.332 427.367L80.3105 432.708ZM81.1527 430.794L36.9514 425.546C37.788 425.089 38.7603 424.54 39.8431 423.915C43.1551 422.005 47.5406 419.363 52.3203 416.433C61.2865 410.935 71.6618 404.409 78.9907 399.751L81.1527 430.794ZM204.231 342.558L185.304 388.819L134.061 363.784L165.329 330.996L189.8 332.418C189.873 332.457 189.978 332.516 190.118 332.601C190.435 332.792 190.876 333.077 191.418 333.439C192.499 334.162 193.943 335.167 195.529 336.289C198.438 338.347 201.803 340.783 204.231 342.558ZM64.5748 329.489L131.394 364.686V394.741L66.6644 389.265L64.5748 329.489ZM189.005 330.369L167.139 329.098L189.005 306.17V330.369ZM191.005 330.801V304.439L223.39 295.73L208.939 331.05L205.011 340.651C202.616 338.903 199.447 336.611 196.684 334.656C195.094 333.531 193.633 332.514 192.53 331.777C191.98 331.409 191.509 331.104 191.151 330.888C191.101 330.858 191.052 330.829 191.005 330.801Z" fill="#030303"/>
</g>
<defs>
<clipPath id="clip0_283_5594">
<rect width="390" height="510" fill="white"/>
</clipPath>
</defs>
</svg>
