<svg width="1026" height="739" viewBox="0 0 1026 739" fill="none" xmlns="http://www.w3.org/2000/svg">
<g clip-path="url(#clip0_283_5550)">
<rect width="1026" height="802" transform="translate(0 -63)" fill="#1F1F1F"/>
<path fill-rule="evenodd" clip-rule="evenodd" d="M151.52 635.53H178.324L184.51 653.604L174.2 673.016L103.41 666.322L60.7989 644.232L53.2388 621.472L84.1664 535.119L64.9226 398.562L84.1664 355.05L146.022 308.192L258.049 260.665L455.986 246.607L540.521 223.848L572.136 230.542L614.748 260.665L711.654 257.987L736.397 271.375L772.823 242.591L788.63 267.359V292.796L812.685 316.895L838.114 331.621V368.438L872.478 402.578L860.795 415.966L842.925 444.75L805.812 459.477L691.036 419.313L620.933 459.477L585.195 491.608L582.446 559.218L567.325 608.084V626.828L605.126 632.852L614.748 654.273L601.689 669H530.212L473.168 586.663L394.818 648.248L376.261 639.546L348.083 659.628L303.409 662.306L250.489 644.901L203.753 553.863L146.022 624.15L151.52 635.53ZM390.007 517.715C364.806 518.608 313.856 520.393 311.657 520.393L303.409 604.737L317.842 618.795H369.388L403.065 560.557L390.007 517.715Z" fill="#774299"/>
<path d="M398.098 739C508.018 485.072 737.077 -35.5161 773.947 -86.4441L-234.409 -214.191L-277.318 739H398.098Z" fill="#FAFAFA"/>
<path fill-rule="evenodd" clip-rule="evenodd" d="M614.929 253.168H606.272L596.963 245.885L570.401 225.101L570.202 224.945L569.953 224.903L539.472 219.682L539.255 219.645L539.043 219.702L455.089 242.302L257.486 257.957L257.334 257.969L257.193 258.026L151.813 300.229L151.703 300.273L151.606 300.342L79.3209 351.681L79.1087 351.832L78.9969 352.067L58.0952 396.01L57.9642 396.285L58.0091 396.587L78.8735 536.866L46.737 624.949L46.6111 625.294L46.7385 625.638L54.1412 645.652L54.2683 645.996L54.5874 646.176L94.6491 668.8L94.8299 668.902L95.0365 668.924L173.853 677.19L175.321 677.344L174.92 675.924L166.211 645.034L166.042 644.434L165.429 644.322L144.603 640.5L137.678 625.439L196.821 552.742L241.859 645.741L241.904 645.834L241.967 645.915L263.089 673.325L263.389 673.715H263.881H352.058H352.801L353.015 673.004L360.865 646.997L394.55 673.501L395.297 674.089L395.922 673.372L458.376 601.701L461.198 595.418L395.039 671.341L361.675 645.089L411.281 570.317L465.943 584.855L466.773 583.006L411.647 568.345L397.127 518.376L466.967 582.573L467.831 580.651L397.733 516.216H480.234L472.511 570.231L475.475 563.633L482.177 516.76L493.792 522.854L494.613 521.026L484.105 515.513L498.898 511.488L499.958 509.126L481.878 514.046L446.618 451.183L550.721 396.113L552.055 393.145L447.213 448.606L493.2 336.101L503.517 310.859H538.958L560.637 327.848L568.648 356.204L569.924 353.363L562.57 327.332L596.751 248.258L604.984 254.7L606.935 270.966L608.525 267.427L607.054 255.168H614.031L614.929 253.168ZM259.074 259.838L452.733 244.495L394.444 305.673L317.513 386.418L259.074 259.838ZM154.565 301.281L315.076 385.911L257.055 260.236L154.565 301.281ZM80.6912 353.161L151.251 303.047L156.35 449.051L60.3055 396.019L80.6912 353.161ZM191.801 468.625L162.001 452.171L316.062 465.217L308.159 513.837L191.801 468.625ZM318.222 391.715V463.258C319.513 463.144 321.485 462.853 323.948 462.423C327.14 461.866 331.07 461.093 335.226 460.233C342.927 458.639 351.378 456.749 357.286 455.385L318.222 391.715ZM335.631 462.191C343.639 460.534 352.451 458.558 358.389 457.182L393.381 514.216H310.124L318.078 465.276C319.512 465.171 321.694 464.846 324.292 464.393C327.513 463.831 331.467 463.053 335.631 462.191ZM409.754 569L394.417 516.216H309.794L295.165 603.056L303.526 634.853L359.856 644.212L409.754 569ZM199.588 551.129L307.69 516.667L293.388 601.561L199.588 551.129ZM199.282 553.236L292.355 603.277L243.106 643.726L199.282 553.236ZM264.373 671.715L244.143 645.463L293.572 604.865L301.756 635.988L301.921 636.614L302.559 636.72L359.046 646.105L351.315 671.715H264.373ZM395.728 514.216H479.68L444.68 451.815L360.588 456.942L395.728 514.216ZM318.888 387.874L444.724 449.411L491.053 336.068C485.183 331.768 476.639 325.569 469.303 320.374C465.5 317.681 462.028 315.262 459.422 313.519C458.118 312.646 457.041 311.949 456.252 311.472C455.856 311.233 455.547 311.059 455.326 310.947C455.233 310.9 455.167 310.87 455.124 310.852L395.572 307.388L318.888 387.874ZM501.92 309.48L491.832 334.16C485.974 329.871 477.641 323.827 470.459 318.742C466.652 316.046 463.162 313.615 460.534 311.856C459.222 310.978 458.114 310.261 457.285 309.76C456.888 309.521 456.542 309.322 456.26 309.179V244.058L537.613 222.158L501.92 309.48ZM454.26 245.791V308.799L397.381 305.49L454.26 245.791ZM504.335 308.859L538.303 225.757V308.859H504.335ZM561.107 325.675L540.303 309.372V221.853L569.367 226.831L595.123 246.984L561.107 325.675ZM319.874 390.583L441.399 450.011L359.403 455.011L319.874 390.583ZM81.8843 538.213L195.114 551.671L136.605 623.589L81.8843 538.213ZM80.1474 539.21L134.68 624.291H49.1057L80.1474 539.21ZM55.8899 644.615L49.1125 626.291H134.145L94.9605 666.679L55.8899 644.615ZM97.2909 667.149L136.21 627.035L143.003 641.807L143.22 642.279L143.731 642.373L164.455 646.176L172.595 675.047L97.2909 667.149ZM195.955 549.757L83.9073 536.44C84.253 536.267 84.6185 536.082 85.0028 535.883C87.4856 534.599 90.8104 532.746 94.7686 530.46C102.688 525.887 113.183 519.56 124.632 512.534C146.927 498.852 172.863 482.507 190.495 471.28L195.955 549.757ZM197.946 549.553L192.483 471.036L305.948 515.123L197.946 549.553ZM123.586 510.829C145.867 497.156 171.792 480.818 189.418 469.594L156.927 451.654L60.2848 398.292L80.7225 535.704C80.8433 535.656 80.9748 535.601 81.1173 535.54C81.8671 535.22 82.8618 534.738 84.0841 534.106C86.5257 532.844 89.8191 531.009 93.7685 528.728C101.664 524.169 112.142 517.852 123.586 510.829ZM316.222 388.776V463.224L158.379 449.857L153.245 302.846L316.222 388.776Z" fill="#1F1F1F"/>
</g>
<defs>
<clipPath id="clip0_283_5550">
<rect width="1026" height="802" fill="white" transform="translate(0 -63)"/>
</clipPath>
</defs>
</svg>
