<svg width="232" height="54" viewBox="0 0 232 54" fill="none" xmlns="http://www.w3.org/2000/svg">
<path fill-rule="evenodd" clip-rule="evenodd" d="M11.9148 8.47845V21.1745H0V8.41463H0.0462156V0.144231L27.7811 8.19832e-05C28.9178 -0.00652025 29.7937 0.385212 30.4759 1.33153C31.9779 3.41344 33.4777 5.49534 34.9786 7.57614C36.0042 9.00002 35.8985 9.55021 35.8985 11.3097V24.2875C35.8974 26.2924 35.8666 27.1562 34.6892 28.7891L28.295 35.958L40.0733 52.7684H27.7382C25.6035 52.7684 23.9606 51.8727 22.8118 50.2167C19.974 46.1266 17.1361 42.0343 14.2982 37.9442H12.6983V52.7816H4.1385C2.971 52.7816 3.2527 52.7772 2.54956 51.7858L0.780164 49.2835C-0.0902305 48.061 0.047316 48.3394 0.047316 46.8286V29.775H11.9357H17.0514C20.6309 29.775 23.4995 28.7022 24.2577 26.0987C24.4525 25.4297 24.3699 16.0732 24.3699 15.2017C24.3699 12.9173 23.7207 11.0896 21.7367 9.78239C20.3943 8.89879 19.5173 8.47515 17.0525 8.47515H11.917L11.9148 8.47845Z" fill="#FAFAFA"/>
<path fill-rule="evenodd" clip-rule="evenodd" d="M84.3326 9.23726L101.758 9.15363C103.239 9.14703 104.61 9.60919 105.831 10.5236C107.926 12.0938 108.979 16.8727 108.979 19.638V34.756C108.979 36.3218 108.552 39.9321 107.684 41.2482C104.797 45.6211 99.06 44.4899 94.6266 44.4899L94.8445 16.8782L93.1004 16.8793L84.4427 16.8892L84.3326 44.4888V46.2065C84.3326 47.7602 84.1863 47.4796 85.0809 48.7362L87.0065 51.4431C88.2268 53.163 88.2169 52.9539 90.2955 52.9539H111.661C112.085 52.9671 112.262 52.7471 112.667 52.2508L120.581 41.2394C121.028 40.6166 121.029 40.0202 121.029 39.2433V14.4794C120.995 13.444 121.016 12.962 120.238 11.8539L112.721 1.28377C112.207 0.461792 111.6 0.282432 110.83 0.293435L84.3315 0.406774V9.23506L84.3326 9.23726Z" fill="#FAFAFA"/>
<path fill-rule="evenodd" clip-rule="evenodd" d="M65.8869 32.3639V0.0030535H75.0255C75.777 0.0030535 75.7946 0.106489 76.2282 0.716095L77.9833 3.18313C78.7018 4.19107 78.5499 4.03592 78.5499 5.27604V25.4172V36.3439C78.5499 38.5304 78.5499 39.4481 78.5499 41.6345C78.5499 45.0424 79.1089 45.7741 76.6815 48.0376L72.3042 52.12C70.2939 53.9939 70.4369 53.8619 67.6607 53.8619C61.9706 53.8619 56.2806 53.8619 50.5906 53.8619C48.1071 53.8619 47.9497 53.7452 46.1451 52.0771L42.6723 48.8673C40.5915 46.9438 40.5948 46.4223 40.5948 43.5514V36.3142V25.4161V4.65213C40.5948 4.12615 40.5684 3.87086 40.8732 3.44172L42.9958 0.455306C43.2907 0.0404661 43.2148 0.00195312 43.7419 0.00195312H53.2359V32.3914C53.2359 40.1919 52.0387 42.922 59.8227 42.922C66.9575 42.8361 65.8869 40.3427 65.8869 32.3628V32.3639Z" fill="#FAFAFA"/>
<path fill-rule="evenodd" clip-rule="evenodd" d="M151.395 49.8613L142.282 12.8371L137.753 35.0536H142.23L142.117 45.0285L135.163 44.9757L133.22 52.8918C130.721 52.8918 128.833 52.8918 126.335 52.8918C125.494 52.8918 125.092 52.9644 124.594 52.2657L123.21 50.3169C122.032 48.6619 121.69 48.772 122.249 46.8639L134.081 0.267578H147.681C148.576 0.267578 149.331 0.368812 149.848 1.09506L151.409 3.2903C151.912 3.99784 151.936 4.05176 152.179 4.88914L164.363 52.8929H155.406C153.817 52.8929 153.71 53.1207 152.793 51.831L151.394 49.8635L151.395 49.8613Z" fill="#FAFAFA"/>
<path fill-rule="evenodd" clip-rule="evenodd" d="M204.266 13.9816L198.537 15.554L195.597 16.0294L188.715 16.2351L186.38 16.4607L180.507 17.1451L175.916 18.8386L170.539 21.4553L165.87 25.0007L163.798 29.1502L165.493 40.4609L164.19 45.1298L162.948 48.0502L163.484 50.559L166.9 52.653L171.764 53.3727L174.583 53.025L175.076 50.9706L174.436 48.8227L172.166 48.8975L172.029 48.6279L175.904 43.6498L179.013 50.7296L183.664 52.51L188.072 52.2151L190.418 50.734L191.652 51.5263L198.438 45.932L202.596 53.091L207.281 53.0525L209.352 52.685L210.711 51.249L209.79 48.6961L206.81 48.0942L206.761 47.2282L207.981 43.0424L208.146 37.7419L210.535 35.2375L216.237 31.8395L220.245 33.3932L225.314 35.1692L229.079 34.3352L230.53 31.5688L231.917 30.5389L231.838 29.5232L228.973 26.6898L229.473 23.3754L226.674 21.8492L225.05 20.1404L225.094 18.1146L223.481 15.8566L223.035 15.2327L222.432 15.8126L220.342 17.8241L218.153 16.6918L210.389 17.0681L206.783 14.3986L206.255 14.3106L204.267 13.9805L204.266 13.9816ZM189.502 47.4054L191.787 43.2405L191.219 40.1462L188.308 40.3949L185.469 40.199L185.606 42.9059L185.121 46.5482L185.568 47.3625L189.502 47.4076V47.4054Z" fill="#774299"/>
</svg>
