<svg width="70" height="41" viewBox="0 0 70 41" fill="none" xmlns="http://www.w3.org/2000/svg">
<path fill-rule="evenodd" clip-rule="evenodd" d="M42.2666 0.84485L36.537 2.41728L33.5968 2.89264L26.715 3.09841L24.3801 3.32399L18.5074 4.00842L13.9166 5.70189L8.53909 8.31858L3.87022 11.864L1.79821 16.0135L3.49279 27.3242L2.18995 31.9931L0.94873 34.9135L1.48461 37.4223L4.90017 39.5163L9.76381 40.236L12.583 39.8883L13.0759 37.8339L12.4366 35.6859L10.1665 35.7608L10.029 35.4912L13.9045 30.5131L17.0131 37.5929L21.6643 39.3733L26.0724 39.0784L28.4184 37.5973L29.6519 38.3895L36.4379 32.7953L40.5962 39.9543L45.2816 39.9158L47.3525 39.5482L48.7115 38.1123L47.7905 35.5594L44.8107 34.9575L44.7611 34.0915L45.9815 29.9057L46.1465 24.6052L48.5354 22.1007L54.2375 18.7028L58.2451 20.2565L63.3145 22.0325L67.0789 21.1984L68.5303 18.4321L69.9168 17.4021L69.8386 16.3865L66.9733 13.553L67.4728 10.2387L64.6746 8.71251L63.0504 7.00363L63.0944 4.97785L61.4813 2.71988L61.0357 2.09597L60.4326 2.67587L58.3419 4.68735L56.1533 3.55507L48.3891 3.93139L44.7831 1.26189L44.255 1.17386L42.2677 0.84375L42.2666 0.84485ZM27.5018 34.2687L29.7873 30.1037L29.2195 27.0095L26.3079 27.2582L23.4689 27.0623L23.6065 29.7692L23.1212 33.4115L23.568 34.2257L27.5018 34.2709V34.2687Z" fill="#774299"/>
</svg>
