<svg width="495" height="152" viewBox="0 0 495 152" fill="none" xmlns="http://www.w3.org/2000/svg">
<path fill-rule="evenodd" clip-rule="evenodd" d="M35.8348 24.0872V59.7122H0V23.9081H0.138997V0.701583L83.5539 0.297105C86.9726 0.278579 89.6069 1.37777 91.6588 4.03313C96.1762 9.87491 100.687 15.7167 105.201 21.5554C108.285 25.5508 107.968 27.0946 107.968 32.0317V68.4471C107.964 74.0727 107.872 76.4965 104.331 81.0785L85.0994 101.194L120.524 148.364H83.4248C77.0045 148.364 72.0635 145.851 68.6084 141.204C60.0733 129.727 51.5382 118.244 43.0031 106.768H38.1912V148.401H12.4469C8.93554 148.401 9.78276 148.389 7.66802 145.607L2.34641 138.585C-0.271376 135.155 0.142307 135.936 0.142307 131.697V83.8451H35.8977H51.2834C62.049 83.8451 70.6768 80.8346 72.957 73.5293C73.5428 71.652 73.2946 45.398 73.2946 42.9526C73.2946 36.5427 71.342 31.4142 65.375 27.7461C61.3375 25.2667 58.6999 24.078 51.2867 24.078H35.8414L35.8348 24.0872Z" fill="#1F1F1F"/>
<path fill-rule="evenodd" clip-rule="evenodd" d="M253.637 26.2166L306.046 25.982C310.5 25.9635 314.624 27.2603 318.294 29.8261C324.595 34.2321 327.762 47.6416 327.762 55.4008V97.8217C327.762 102.215 326.478 112.346 323.867 116.039C315.186 128.309 297.931 125.135 284.597 125.135L285.252 47.6571L280.007 47.6602L253.968 47.688L253.637 125.132V129.951C253.637 134.311 253.197 133.524 255.888 137.05L261.679 144.645C265.349 149.471 265.319 148.885 271.571 148.885H335.831C337.105 148.922 337.638 148.304 338.856 146.912L362.657 116.014C364.001 114.266 364.004 112.593 364.004 110.413V40.9261C363.902 38.0206 363.965 36.6682 361.625 33.559L339.018 3.89931C337.472 1.59286 335.645 1.08957 333.329 1.12045L253.634 1.43848V26.2105L253.637 26.2166Z" fill="#1F1F1F"/>
<path fill-rule="evenodd" clip-rule="evenodd" d="M198.16 91.1097V0.305822H225.645C227.906 0.305822 227.959 0.596059 229.263 2.3066L234.541 9.22905C236.702 12.0573 236.245 11.622 236.245 15.1017V71.6175V102.278C236.245 108.413 236.245 110.988 236.245 117.123C236.245 126.685 237.927 128.739 230.626 135.09L217.461 146.545C211.415 151.803 211.845 151.433 203.495 151.433C186.382 151.433 169.269 151.433 152.155 151.433C144.686 151.433 144.213 151.105 138.785 146.424L128.341 137.418C122.082 132.021 122.092 130.557 122.092 122.502V102.194V71.6144V13.351C122.092 11.8751 122.013 11.1588 122.93 9.95464L129.314 1.57483C130.2 0.410801 129.972 0.302734 131.557 0.302734H160.111V91.1869C160.111 113.075 156.511 120.735 179.922 120.735C201.38 120.495 198.16 113.498 198.16 91.1066V91.1097Z" fill="#1F1F1F"/>
<path fill-rule="evenodd" clip-rule="evenodd" d="M455.332 140.206L427.926 36.3168L414.304 98.6559H427.767L427.43 126.645L406.514 126.497L400.669 148.709C393.154 148.709 387.475 148.709 379.962 148.709C377.434 148.709 376.226 148.913 374.727 146.952L370.563 141.484C367.022 136.84 365.993 137.149 367.674 131.795L403.261 1.04688H444.162C446.853 1.04688 449.127 1.33094 450.679 3.36877L455.375 9.52857C456.887 11.5139 456.96 11.6652 457.691 14.0149L494.334 148.712H467.395C462.616 148.712 462.295 149.352 459.538 145.733L455.328 140.212L455.332 140.206Z" fill="#1F1F1F"/>
</svg>
