<svg width="350" height="133" viewBox="0 0 350 133" fill="none" xmlns="http://www.w3.org/2000/svg">
<path d="M39.8411 53.0647L39.8296 65.6523L46.9433 65.66C48.6246 65.66 49.9929 64.3063 49.9929 62.6365L49.9968 56.0985C49.9968 54.4286 48.6364 53.0721 46.951 53.0721L39.8411 53.0645V53.0647Z" fill="#CDA47F"/>
<path d="M0.00385446 56.0603L8.11529e-06 62.5981C-0.00383823 64.2679 1.36008 65.6257 3.0458 65.6257L10.1554 65.6295L10.1633 53.0448L3.0535 53.0371C1.36803 53.0371 0.00385446 54.3908 0.00385446 56.0606V56.0603Z" fill="#CDA47F"/>
<path d="M45.9636 78.6572L45.9949 36.9892L4.00636 36.959L3.97559 78.627L45.9636 78.6572Z" fill="#E1B586"/>
<path d="M16.9449 57.5586H14.4133L14.4094 63.0943L19.9869 63.0981L19.9907 60.5859C19.9907 58.9161 18.6304 57.5624 16.9449 57.5586Z" fill="#2D448C"/>
<path d="M22.1909 63.0931V64.2329C22.1909 64.9452 22.7745 65.525 23.4948 65.5289H26.4606C27.1809 65.5289 27.7684 64.9491 27.7684 64.2367V63.0969C27.7684 62.3805 27.185 61.801 26.4645 61.7969H23.4987C22.7786 61.7969 22.1909 62.3764 22.1909 63.0928V63.0931Z" fill="#CDA47F"/>
<path d="M35.6325 57.5742L35.6287 63.1099L41.2061 63.1137L41.21 60.6008C41.21 58.931 39.8458 57.5783 38.1642 57.5742H35.6325Z" fill="#2D448C"/>
<path d="M49.9971 41.6853V39.8816C49.9971 38.2462 48.6632 36.92 47.0157 36.92L2.98836 36.8887C1.33827 36.8856 0.00384635 38.2118 0 39.8475V41.6502C0 43.2857 1.33391 44.6132 2.98041 44.6132L47.0088 44.6434C48.6591 44.6473 49.9933 43.3203 49.9971 41.6856V41.6853Z" fill="#2E3A60"/>
<path d="M27.6084 2.16275C26.4684 0.180596 23.5905 0.180596 22.4466 2.15993L2.2605 37.2096L47.741 37.244L27.6084 2.16275Z" fill="#334E9B"/>
<path d="M35.6858 57.5742L30.1086 57.5703L30.1047 63.106L35.6819 63.1098L35.6858 57.5742Z" fill="white"/>
<path d="M4.02588 53.0145L6.70165 53.0183C8.25737 53.0183 9.51923 51.7682 9.51923 50.2243C9.52231 48.5086 10.9257 47.1206 12.653 47.1206L37.3942 47.139C39.1215 47.139 40.5239 48.5309 40.52 50.2466C40.52 51.7906 41.7783 53.0447 43.3376 53.0447H46.0136L46.0252 37.0598L4.03639 37.0293L4.02588 53.0145Z" fill="#2C2C2B"/>
<path d="M29.8264 73.9197L20.1587 73.9118V71.8604L3.97943 71.8496L3.97559 77.9258C3.97559 78.8412 4.37971 79.7059 5.08154 80.2975L22.9488 95.3208C24.1161 96.3006 25.8241 96.3044 26.9942 95.3246L44.8851 80.3275C45.5866 79.7372 45.9946 78.8677 45.9946 77.9568L45.9985 71.8799L29.8261 71.8681V73.9197H29.8264Z" fill="#2C2C2B"/>
<path d="M14.463 63.0942L14.4668 57.5585L8.88934 57.5547L8.8855 63.0901L14.463 63.0942Z" fill="white"/>
<path d="M46.9516 36.92L3.05013 36.8887C1.36851 36.8856 0.00433463 38.2385 0.000488281 39.9122V42.4202L49.9976 42.4554V39.9463C49.9976 38.2764 48.6373 36.92 46.9518 36.92H46.9516Z" fill="#4160A7"/>
<path d="M21.6911 74.9158L25.3246 74.9199L28.9004 74.9238C30.2159 74.9238 31.2787 73.8678 31.2826 72.5639V71.8436L25.3284 71.8398L19.3127 71.8359V72.5521C19.3127 73.856 20.3764 74.9158 21.6911 74.9158Z" fill="#BB2830"/>
<path d="M172.07 55.3184C173.69 55.3184 175.001 56.5653 175.001 58.1016V63.6675C175.001 65.2037 173.69 66.4469 172.07 66.4469H146.681C145.06 66.4469 143.749 65.2037 143.749 63.6675V58.1016C143.749 56.5653 145.06 55.3184 146.681 55.3184H172.07Z" fill="#2C2C2B"/>
<path d="M107.277 72.2136H123.97C125.503 72.2136 126.75 70.9666 126.75 69.4303C126.75 67.8941 125.503 66.6517 123.97 66.6517H118.405C116.869 66.6517 115.622 65.4047 115.622 63.8685V58.3067C115.622 56.7707 116.869 55.5235 118.405 55.5235H131.176C131.916 55.5235 132.624 55.8173 133.143 56.3394L137.066 60.2735C137.588 60.7925 137.877 61.5012 137.877 62.2372V80.5594C137.877 82.0956 136.631 83.3418 135.094 83.3418H96.1485C94.6122 83.3418 93.3699 82.0956 93.3699 80.5594V41.6125C93.3699 40.0763 94.6122 38.8301 96.1485 38.8301H135.094C136.631 38.8301 137.877 40.0763 137.877 41.6125V47.1784C137.877 48.7154 136.631 49.9578 135.094 49.9578H107.277C105.74 49.9578 104.498 51.204 104.498 52.741V69.4306C104.498 70.9668 105.74 72.2138 107.277 72.2138V72.2136Z" fill="#334E9B"/>
<path d="M225.376 45.5564V80.5574C225.376 82.0936 224.134 83.3399 222.598 83.3399H217.032C215.495 83.3399 214.249 82.0936 214.249 80.5574V52.7391C214.249 51.2021 213.005 49.9559 211.469 49.9559H194.78C193.24 49.9559 191.996 51.2021 191.996 52.7391V80.5574C191.996 82.0936 190.75 83.3399 189.214 83.3399H183.651C182.115 83.3399 180.869 82.0936 180.869 80.5574V41.6106C180.869 40.0743 182.115 38.8281 183.651 38.8281H218.602C219.334 38.8281 220.036 39.1181 220.558 39.6323L224.554 43.5781C225.08 44.1002 225.377 44.8136 225.377 45.5564H225.376Z" fill="#2C2C2B"/>
<path d="M350 45.5418V80.5574C350 82.0936 348.738 83.3399 347.186 83.3399H341.559C340.007 83.3399 338.749 82.0936 338.749 80.5574V52.7391C338.749 51.2021 337.487 49.9559 335.936 49.9559H330.309C328.758 49.9559 327.5 51.2021 327.5 52.7391V80.5574C327.5 82.0936 326.238 83.3399 324.686 83.3399H319.059C317.508 83.3399 316.25 82.0936 316.25 80.5574V52.7391C316.25 51.2021 314.988 49.9559 313.436 49.9559H307.809C306.257 49.9559 304.999 51.2021 304.999 52.7391V80.5574C304.999 82.0936 303.737 83.3399 302.186 83.3399H296.563C295.008 83.3399 293.75 82.0936 293.75 80.5574V41.6106C293.75 40.0743 295.008 38.8281 296.563 38.8281H343.213C343.961 38.8281 344.677 39.122 345.207 39.6443L349.176 43.5781C349.702 44.1002 350 44.8059 350 45.5418H350Z" fill="#2C2C2B"/>
<path d="M267.719 72.2121H251.029C249.493 72.2121 248.247 70.9651 248.247 69.4289V52.7393C248.247 51.2023 249.493 49.9561 251.029 49.9561H267.719C269.256 49.9561 270.503 51.2023 270.503 52.7393V69.4289C270.503 70.9651 269.255 72.2121 267.719 72.2121ZM237.119 41.6106V80.5574C237.119 82.0936 238.365 83.3399 239.901 83.3399H278.847C280.384 83.3399 281.627 82.0936 281.627 80.5574V45.5487C281.627 44.8097 281.333 44.1002 280.811 43.5781L276.853 39.64C276.331 39.1217 275.626 38.8281 274.891 38.8281H239.901C238.365 38.8281 237.119 40.0743 237.119 41.6106Z" fill="#2C2C2B"/>
<path d="M88.1289 109.613H91.1992V111.441C91.5977 110.816 92.1367 110.309 92.8164 109.918C93.4961 109.527 94.25 109.332 95.0781 109.332C96.5234 109.332 97.75 109.898 98.7578 111.031C99.7656 112.164 100.27 113.742 100.27 115.766C100.27 117.844 99.7617 119.461 98.7461 120.617C97.7305 121.766 96.5 122.34 95.0547 122.34C94.3672 122.34 93.7422 122.203 93.1797 121.93C92.625 121.656 92.0391 121.188 91.4219 120.523V126.793H88.1289V109.613ZM91.3867 115.625C91.3867 117.023 91.6641 118.059 92.2188 118.73C92.7734 119.395 93.4492 119.727 94.2461 119.727C95.0117 119.727 95.6484 119.422 96.1562 118.812C96.6641 118.195 96.918 117.188 96.918 115.789C96.918 114.484 96.6562 113.516 96.1328 112.883C95.6094 112.25 94.9609 111.934 94.1875 111.934C93.3828 111.934 92.7148 112.246 92.1836 112.871C91.6523 113.488 91.3867 114.406 91.3867 115.625ZM105.355 113.41L102.367 112.871C102.703 111.668 103.281 110.777 104.102 110.199C104.922 109.621 106.141 109.332 107.758 109.332C109.227 109.332 110.32 109.508 111.039 109.859C111.758 110.203 112.262 110.645 112.551 111.184C112.848 111.715 112.996 112.695 112.996 114.125L112.961 117.969C112.961 119.062 113.012 119.871 113.113 120.395C113.223 120.91 113.422 121.465 113.711 122.059H110.453C110.367 121.84 110.262 121.516 110.137 121.086C110.082 120.891 110.043 120.762 110.02 120.699C109.457 121.246 108.855 121.656 108.215 121.93C107.574 122.203 106.891 122.34 106.164 122.34C104.883 122.34 103.871 121.992 103.129 121.297C102.395 120.602 102.027 119.723 102.027 118.66C102.027 117.957 102.195 117.332 102.531 116.785C102.867 116.23 103.336 115.809 103.938 115.52C104.547 115.223 105.422 114.965 106.562 114.746C108.102 114.457 109.168 114.188 109.762 113.938V113.609C109.762 112.977 109.605 112.527 109.293 112.262C108.98 111.988 108.391 111.852 107.523 111.852C106.938 111.852 106.48 111.969 106.152 112.203C105.824 112.43 105.559 112.832 105.355 113.41ZM109.762 116.082C109.34 116.223 108.672 116.391 107.758 116.586C106.844 116.781 106.246 116.973 105.965 117.16C105.535 117.465 105.32 117.852 105.32 118.32C105.32 118.781 105.492 119.18 105.836 119.516C106.18 119.852 106.617 120.02 107.148 120.02C107.742 120.02 108.309 119.824 108.848 119.434C109.246 119.137 109.508 118.773 109.633 118.344C109.719 118.062 109.762 117.527 109.762 116.738V116.082ZM119.91 116.949V114.805C120.48 114.805 120.895 114.77 121.152 114.699C121.41 114.621 121.652 114.441 121.879 114.16C122.113 113.871 122.23 113.543 122.23 113.176C122.23 112.785 122.086 112.426 121.797 112.098C121.516 111.762 121.09 111.594 120.52 111.594C120.082 111.594 119.691 111.688 119.348 111.875C119.004 112.062 118.691 112.508 118.41 113.211L115.621 112.613C115.902 111.52 116.504 110.699 117.426 110.152C118.348 109.605 119.398 109.332 120.578 109.332C122.078 109.332 123.238 109.676 124.059 110.363C124.887 111.051 125.301 111.914 125.301 112.953C125.301 113.602 125.121 114.141 124.762 114.57C124.41 114.992 123.852 115.387 123.086 115.754C124.008 116.004 124.695 116.383 125.148 116.891C125.609 117.398 125.84 118.031 125.84 118.789C125.84 119.758 125.387 120.594 124.48 121.297C123.574 121.992 122.27 122.34 120.566 122.34C117.598 122.34 115.781 121.18 115.117 118.859L118.129 118.309C118.613 119.527 119.414 120.137 120.531 120.137C121.148 120.137 121.641 119.977 122.008 119.656C122.383 119.328 122.57 118.945 122.57 118.508C122.57 118.023 122.375 117.645 121.984 117.371C121.602 117.09 121.098 116.949 120.473 116.949H119.91ZM128.395 109.613H131.465V111.441C131.863 110.816 132.402 110.309 133.082 109.918C133.762 109.527 134.516 109.332 135.344 109.332C136.789 109.332 138.016 109.898 139.023 111.031C140.031 112.164 140.535 113.742 140.535 115.766C140.535 117.844 140.027 119.461 139.012 120.617C137.996 121.766 136.766 122.34 135.32 122.34C134.633 122.34 134.008 122.203 133.445 121.93C132.891 121.656 132.305 121.188 131.688 120.523V126.793H128.395V109.613ZM131.652 115.625C131.652 117.023 131.93 118.059 132.484 118.73C133.039 119.395 133.715 119.727 134.512 119.727C135.277 119.727 135.914 119.422 136.422 118.812C136.93 118.195 137.184 117.188 137.184 115.789C137.184 114.484 136.922 113.516 136.398 112.883C135.875 112.25 135.227 111.934 134.453 111.934C133.648 111.934 132.98 112.246 132.449 112.871C131.918 113.488 131.652 114.406 131.652 115.625ZM145.621 113.41L142.633 112.871C142.969 111.668 143.547 110.777 144.367 110.199C145.188 109.621 146.406 109.332 148.023 109.332C149.492 109.332 150.586 109.508 151.305 109.859C152.023 110.203 152.527 110.645 152.816 111.184C153.113 111.715 153.262 112.695 153.262 114.125L153.227 117.969C153.227 119.062 153.277 119.871 153.379 120.395C153.488 120.91 153.688 121.465 153.977 122.059H150.719C150.633 121.84 150.527 121.516 150.402 121.086C150.348 120.891 150.309 120.762 150.285 120.699C149.723 121.246 149.121 121.656 148.48 121.93C147.84 122.203 147.156 122.34 146.43 122.34C145.148 122.34 144.137 121.992 143.395 121.297C142.66 120.602 142.293 119.723 142.293 118.66C142.293 117.957 142.461 117.332 142.797 116.785C143.133 116.23 143.602 115.809 144.203 115.52C144.812 115.223 145.688 114.965 146.828 114.746C148.367 114.457 149.434 114.188 150.027 113.938V113.609C150.027 112.977 149.871 112.527 149.559 112.262C149.246 111.988 148.656 111.852 147.789 111.852C147.203 111.852 146.746 111.969 146.418 112.203C146.09 112.43 145.824 112.832 145.621 113.41ZM150.027 116.082C149.605 116.223 148.938 116.391 148.023 116.586C147.109 116.781 146.512 116.973 146.23 117.16C145.801 117.465 145.586 117.852 145.586 118.32C145.586 118.781 145.758 119.18 146.102 119.516C146.445 119.852 146.883 120.02 147.414 120.02C148.008 120.02 148.574 119.824 149.113 119.434C149.512 119.137 149.773 118.773 149.898 118.344C149.984 118.062 150.027 117.527 150.027 116.738V116.082ZM165.859 104.48H168.098C168.027 105.473 167.766 106.227 167.312 106.742C166.867 107.25 165.762 107.504 163.996 107.504C163.785 107.504 163.574 107.5 163.363 107.492H162.941C161.895 107.492 161.043 107.609 160.387 107.844C159.73 108.07 159.191 108.516 158.77 109.18C158.355 109.844 158.141 110.914 158.125 112.391C158.609 111.477 159.234 110.793 160 110.34C160.773 109.887 161.691 109.66 162.754 109.66C164.387 109.66 165.77 110.297 166.902 111.57C168.035 112.836 168.602 114.305 168.602 115.977C168.602 117.719 168.004 119.215 166.809 120.465C165.621 121.715 164.066 122.34 162.145 122.34C160.824 122.34 159.664 122.023 158.664 121.391C157.664 120.758 156.949 119.895 156.52 118.801C156.09 117.699 155.875 115.879 155.875 113.34C155.875 110.355 156.422 108.211 157.516 106.906C158.617 105.602 160.535 104.949 163.27 104.949H164.934C165.395 104.949 165.703 104.793 165.859 104.48ZM159.227 115.93C159.227 117.062 159.508 117.961 160.07 118.625C160.641 119.281 161.336 119.609 162.156 119.609C163.039 119.609 163.762 119.27 164.324 118.59C164.895 117.902 165.18 117.02 165.18 115.941C165.18 114.84 164.891 113.953 164.312 113.281C163.742 112.602 163.035 112.262 162.191 112.262C161.371 112.262 160.672 112.594 160.094 113.258C159.516 113.922 159.227 114.812 159.227 115.93ZM170.594 115.66C170.594 114.566 170.863 113.508 171.402 112.484C171.941 111.461 172.703 110.68 173.688 110.141C174.68 109.602 175.785 109.332 177.004 109.332C178.887 109.332 180.43 109.945 181.633 111.172C182.836 112.391 183.438 113.934 183.438 115.801C183.438 117.684 182.828 119.246 181.609 120.488C180.398 121.723 178.871 122.34 177.027 122.34C175.887 122.34 174.797 122.082 173.758 121.566C172.727 121.051 171.941 120.297 171.402 119.305C170.863 118.305 170.594 117.09 170.594 115.66ZM173.969 115.836C173.969 117.07 174.262 118.016 174.848 118.672C175.434 119.328 176.156 119.656 177.016 119.656C177.875 119.656 178.594 119.328 179.172 118.672C179.758 118.016 180.051 117.062 180.051 115.812C180.051 114.594 179.758 113.656 179.172 113C178.594 112.344 177.875 112.016 177.016 112.016C176.156 112.016 175.434 112.344 174.848 113C174.262 113.656 173.969 114.602 173.969 115.836ZM183.941 109.613H195.203V112.273H191.219V122.059H187.926V112.273H183.941V109.613ZM197.055 109.613H200.336V114.699C200.883 114.637 201.27 114.469 201.496 114.195C201.723 113.922 201.996 113.324 202.316 112.402C202.738 111.176 203.199 110.391 203.699 110.047C204.199 109.703 204.855 109.531 205.668 109.531C205.918 109.531 206.352 109.551 206.969 109.59L206.98 111.77C206.113 111.77 205.559 111.852 205.316 112.016C205.074 112.188 204.812 112.699 204.531 113.551C204.148 114.699 203.598 115.406 202.879 115.672C203.918 115.961 204.797 116.863 205.516 118.379C205.555 118.457 205.598 118.539 205.645 118.625L207.484 122.059H203.945L202.305 118.461C201.969 117.734 201.676 117.27 201.426 117.066C201.184 116.855 200.82 116.75 200.336 116.75V122.059H197.055V109.613ZM211.668 113.41L208.68 112.871C209.016 111.668 209.594 110.777 210.414 110.199C211.234 109.621 212.453 109.332 214.07 109.332C215.539 109.332 216.633 109.508 217.352 109.859C218.07 110.203 218.574 110.645 218.863 111.184C219.16 111.715 219.309 112.695 219.309 114.125L219.273 117.969C219.273 119.062 219.324 119.871 219.426 120.395C219.535 120.91 219.734 121.465 220.023 122.059H216.766C216.68 121.84 216.574 121.516 216.449 121.086C216.395 120.891 216.355 120.762 216.332 120.699C215.77 121.246 215.168 121.656 214.527 121.93C213.887 122.203 213.203 122.34 212.477 122.34C211.195 122.34 210.184 121.992 209.441 121.297C208.707 120.602 208.34 119.723 208.34 118.66C208.34 117.957 208.508 117.332 208.844 116.785C209.18 116.23 209.648 115.809 210.25 115.52C210.859 115.223 211.734 114.965 212.875 114.746C214.414 114.457 215.48 114.188 216.074 113.938V113.609C216.074 112.977 215.918 112.527 215.605 112.262C215.293 111.988 214.703 111.852 213.836 111.852C213.25 111.852 212.793 111.969 212.465 112.203C212.137 112.43 211.871 112.832 211.668 113.41ZM216.074 116.082C215.652 116.223 214.984 116.391 214.07 116.586C213.156 116.781 212.559 116.973 212.277 117.16C211.848 117.465 211.633 117.852 211.633 118.32C211.633 118.781 211.805 119.18 212.148 119.516C212.492 119.852 212.93 120.02 213.461 120.02C214.055 120.02 214.621 119.824 215.16 119.434C215.559 119.137 215.82 118.773 215.945 118.344C216.031 118.062 216.074 117.527 216.074 116.738V116.082ZM229.316 104.879H242.98V122.059H239.512V107.762H232.785V122.059H229.316V104.879ZM245.816 113.574C245.816 111.824 246.078 110.355 246.602 109.168C246.992 108.293 247.523 107.508 248.195 106.812C248.875 106.117 249.617 105.602 250.422 105.266C251.492 104.812 252.727 104.586 254.125 104.586C256.656 104.586 258.68 105.371 260.195 106.941C261.719 108.512 262.48 110.695 262.48 113.492C262.48 116.266 261.727 118.438 260.219 120.008C258.711 121.57 256.695 122.352 254.172 122.352C251.617 122.352 249.586 121.574 248.078 120.02C246.57 118.457 245.816 116.309 245.816 113.574ZM249.391 113.457C249.391 115.402 249.84 116.879 250.738 117.887C251.637 118.887 252.777 119.387 254.16 119.387C255.543 119.387 256.676 118.891 257.559 117.898C258.449 116.898 258.895 115.402 258.895 113.41C258.895 111.441 258.461 109.973 257.594 109.004C256.734 108.035 255.59 107.551 254.16 107.551C252.73 107.551 251.578 108.043 250.703 109.027C249.828 110.004 249.391 111.48 249.391 113.457Z" fill="#1F1F1F"/>
</svg>
