<svg width="350" height="89" viewBox="0 0 350 89" fill="none" xmlns="http://www.w3.org/2000/svg">
<path d="M25.982 0.675781L38.8096 22.0552H64.4647L77.2926 0.675781H25.982Z" fill="#327FAD"/>
<path d="M76.8453 0.675781L63.396 22.5899L76.0992 44.5036H101.506L101.879 43.8603L76.8453 0.675781Z" fill="#42B6B0"/>
<path d="M101.506 44.5036H76.0992L63.396 66.4181L76.0992 88.332H76.8449L101.879 45.1475L101.506 44.5036Z" fill="#883588"/>
<path d="M63.7121 65.8827H38.8098L25.982 88.3311H77.2926L63.7121 65.8827Z" fill="#224D77"/>
<path d="M26.02 44.5042H0.440861L0.32666 44.6999L25.7914 88.332H26.02L38.8096 66.4181L26.02 44.5042Z" fill="#275B86"/>
<path d="M0.32666 44.3079L0.440861 44.5042H26.02L38.8096 22.5899L25.7916 0.675781L0.32666 44.3079Z" fill="#32AEDA"/>
<path d="M100.81 44.5044H101.879L101.345 43.4354L100.81 44.5044Z" fill="#42B6B0"/>
<path d="M101.345 45.5732L101.879 44.5044H100.81L101.345 45.5732Z" fill="#883588"/>
<path d="M119.785 34.6758V6.12109H141.055V34.6758H137.773V9.05078H123.105V34.6758H119.785Z" fill="#1F1F1F"/>
<path d="M158.496 12.8789C161.165 12.8789 163.294 13.7969 164.883 15.6328C166.471 17.4688 167.266 20.2292 167.266 23.9141C167.266 26.349 166.901 28.3932 166.172 30.0469C165.443 31.7005 164.414 32.9505 163.086 33.7969C161.771 34.6432 160.215 35.0664 158.418 35.0664C157.285 35.0664 156.289 34.9167 155.43 34.6172C154.57 34.3177 153.835 33.9141 153.223 33.4062C152.611 32.8984 152.103 32.3451 151.699 31.7461H151.465C151.504 32.2539 151.549 32.8659 151.602 33.582C151.667 34.2982 151.699 34.9232 151.699 35.457V44.2461H148.438V13.2695H151.113L151.543 16.4336H151.699C152.116 15.7826 152.624 15.1901 153.223 14.6562C153.822 14.1094 154.551 13.6797 155.41 13.3672C156.283 13.0417 157.311 12.8789 158.496 12.8789ZM157.93 15.6133C156.445 15.6133 155.247 15.8997 154.336 16.4727C153.438 17.0456 152.78 17.9049 152.363 19.0508C151.947 20.1836 151.725 21.6094 151.699 23.3281V23.9531C151.699 25.763 151.895 27.293 152.285 28.543C152.689 29.793 153.346 30.7435 154.258 31.3945C155.182 32.0456 156.419 32.3711 157.969 32.3711C159.297 32.3711 160.404 32.013 161.289 31.2969C162.174 30.5807 162.832 29.5846 163.262 28.3086C163.704 27.0195 163.926 25.5417 163.926 23.875C163.926 21.349 163.431 19.3438 162.441 17.8594C161.465 16.362 159.961 15.6133 157.93 15.6133Z" fill="#1F1F1F"/>
<path d="M176.016 13.2695V26.7266C176.016 26.987 176.009 27.3255 175.996 27.7422C175.983 28.1458 175.964 28.582 175.938 29.0508C175.911 29.5065 175.885 29.9492 175.859 30.3789C175.846 30.7956 175.827 31.1406 175.801 31.4141L187.48 13.2695H191.465V34.6758H188.438V21.5508C188.438 21.1341 188.444 20.6003 188.457 19.9492C188.47 19.2982 188.49 18.6602 188.516 18.0352C188.542 17.3971 188.561 16.9023 188.574 16.5508L176.934 34.6758H172.93V13.2695H176.016Z" fill="#1F1F1F"/>
<path d="M210.84 13.2695H214.414L205.176 23.6016L215.156 34.6758H211.348L201.621 23.8164V34.6758H198.359V13.2695H201.621V23.6602L210.84 13.2695Z" fill="#1F1F1F"/>
<path d="M235.078 34.6758H231.777V15.9844H225.273C225.013 19.3568 224.681 22.2474 224.277 24.6562C223.887 27.0521 223.392 29.0117 222.793 30.5352C222.207 32.0456 221.491 33.1589 220.645 33.875C219.811 34.5781 218.815 34.9297 217.656 34.9297C217.305 34.9297 216.973 34.9102 216.66 34.8711C216.348 34.832 216.081 34.7669 215.859 34.6758V32.2148C216.029 32.2669 216.204 32.306 216.387 32.332C216.582 32.3581 216.784 32.3711 216.992 32.3711C217.578 32.3711 218.112 32.1302 218.594 31.6484C219.089 31.1536 219.531 30.4115 219.922 29.4219C220.326 28.4323 220.684 27.1823 220.996 25.6719C221.309 24.1484 221.582 22.3581 221.816 20.3008C222.064 18.2305 222.279 15.8867 222.461 13.2695H235.078V34.6758Z" fill="#1F1F1F"/>
<path d="M249.922 12.918C252.474 12.918 254.368 13.4909 255.605 14.6367C256.842 15.7826 257.461 17.612 257.461 20.125V34.6758H255.098L254.473 31.5117H254.316C253.717 32.293 253.092 32.9505 252.441 33.4844C251.79 34.0052 251.035 34.4023 250.176 34.6758C249.329 34.9362 248.288 35.0664 247.051 35.0664C245.749 35.0664 244.59 34.8385 243.574 34.3828C242.572 33.9271 241.777 33.237 241.191 32.3125C240.618 31.388 240.332 30.2161 240.332 28.7969C240.332 26.6615 241.178 25.0208 242.871 23.875C244.564 22.7292 247.142 22.1042 250.605 22L254.297 21.8438V20.5352C254.297 18.6862 253.9 17.3906 253.105 16.6484C252.311 15.9062 251.191 15.5352 249.746 15.5352C248.626 15.5352 247.559 15.6979 246.543 16.0234C245.527 16.349 244.564 16.7331 243.652 17.1758L242.656 14.7148C243.62 14.2201 244.727 13.7969 245.977 13.4453C247.227 13.0938 248.542 12.918 249.922 12.918ZM254.258 24.1289L250.996 24.2656C248.327 24.3698 246.445 24.806 245.352 25.5742C244.258 26.3424 243.711 27.4297 243.711 28.8359C243.711 30.0599 244.082 30.9648 244.824 31.5508C245.566 32.1367 246.549 32.4297 247.773 32.4297C249.674 32.4297 251.23 31.9023 252.441 30.8477C253.652 29.793 254.258 28.2109 254.258 26.1016V24.1289Z" fill="#1F1F1F"/>
<path d="M279.824 13.2695V31.9219H282.891V42.0781H279.746V34.6758H264.59V42.0781H261.484V31.9219H263.164C264.388 30.2292 265.404 28.3737 266.211 26.3555C267.018 24.3372 267.63 22.2214 268.047 20.0078C268.464 17.7812 268.685 15.5352 268.711 13.2695H279.824ZM276.68 15.8477H271.602C271.484 17.7487 271.204 19.6823 270.762 21.6484C270.332 23.6146 269.759 25.4896 269.043 27.2734C268.327 29.0443 267.493 30.5938 266.543 31.9219H276.68V15.8477Z" fill="#1F1F1F"/>
<path d="M290.41 13.2695V22.2539H302.344V13.2695H305.586V34.6758H302.344V25.0078H290.41V34.6758H287.148V13.2695H290.41Z" fill="#1F1F1F"/>
<path d="M320.469 12.918C323.021 12.918 324.915 13.4909 326.152 14.6367C327.389 15.7826 328.008 17.612 328.008 20.125V34.6758H325.645L325.02 31.5117H324.863C324.264 32.293 323.639 32.9505 322.988 33.4844C322.337 34.0052 321.582 34.4023 320.723 34.6758C319.876 34.9362 318.835 35.0664 317.598 35.0664C316.296 35.0664 315.137 34.8385 314.121 34.3828C313.118 33.9271 312.324 33.237 311.738 32.3125C311.165 31.388 310.879 30.2161 310.879 28.7969C310.879 26.6615 311.725 25.0208 313.418 23.875C315.111 22.7292 317.689 22.1042 321.152 22L324.844 21.8438V20.5352C324.844 18.6862 324.447 17.3906 323.652 16.6484C322.858 15.9062 321.738 15.5352 320.293 15.5352C319.173 15.5352 318.105 15.6979 317.09 16.0234C316.074 16.349 315.111 16.7331 314.199 17.1758L313.203 14.7148C314.167 14.2201 315.273 13.7969 316.523 13.4453C317.773 13.0938 319.089 12.918 320.469 12.918ZM324.805 24.1289L321.543 24.2656C318.874 24.3698 316.992 24.806 315.898 25.5742C314.805 26.3424 314.258 27.4297 314.258 28.8359C314.258 30.0599 314.629 30.9648 315.371 31.5508C316.113 32.1367 317.096 32.4297 318.32 32.4297C320.221 32.4297 321.777 31.9023 322.988 30.8477C324.199 29.793 324.805 28.2109 324.805 26.1016V24.1289Z" fill="#1F1F1F"/>
<path d="M335.723 34.6758H331.934L338.105 25.6523C337.207 25.457 336.374 25.125 335.605 24.6562C334.837 24.1745 334.212 23.5169 333.73 22.6836C333.262 21.8503 333.027 20.8151 333.027 19.5781C333.027 17.5208 333.711 15.9583 335.078 14.8906C336.458 13.8099 338.275 13.2695 340.527 13.2695H350V34.6758H346.758V26.082H341.328L335.723 34.6758ZM336.172 19.5977C336.172 20.8737 336.628 21.8242 337.539 22.4492C338.451 23.0612 339.753 23.3672 341.445 23.3672H346.758V15.9844H340.879C339.212 15.9844 338.008 16.3229 337.266 17C336.536 17.6641 336.172 18.5299 336.172 19.5977Z" fill="#1F1F1F"/>
<path d="M132.344 85.9863L122.754 60.7129H122.598C122.65 61.2467 122.695 61.8978 122.734 62.666C122.773 63.4342 122.806 64.2741 122.832 65.1855C122.858 66.084 122.871 67.002 122.871 67.9395V85.9863H119.785V57.4316H124.707L133.75 81.1816H133.887L143.066 57.4316H147.949V85.9863H144.668V67.7051C144.668 66.8587 144.681 66.0124 144.707 65.166C144.733 64.3066 144.766 63.4993 144.805 62.7441C144.844 61.9759 144.883 61.3118 144.922 60.752H144.766L135.059 85.9863H132.344Z" fill="#1F1F1F"/>
<path d="M163.516 64.1895C165.339 64.1895 166.901 64.5931 168.203 65.4004C169.505 66.2077 170.501 67.3405 171.191 68.7988C171.882 70.2441 172.227 71.9369 172.227 73.877V75.8887H157.441C157.48 78.4017 158.105 80.3158 159.316 81.6309C160.527 82.946 162.233 83.6035 164.434 83.6035C165.788 83.6035 166.986 83.4798 168.027 83.2324C169.069 82.985 170.15 82.6204 171.27 82.1387V84.9902C170.189 85.472 169.115 85.8236 168.047 86.0449C166.992 86.2663 165.742 86.377 164.297 86.377C162.24 86.377 160.443 85.9603 158.906 85.127C157.383 84.2806 156.198 83.0436 155.352 81.416C154.505 79.7884 154.082 77.7962 154.082 75.4395C154.082 73.1348 154.466 71.1426 155.234 69.4629C156.016 67.7702 157.109 66.4681 158.516 65.5566C159.935 64.6452 161.602 64.1895 163.516 64.1895ZM163.477 66.8457C161.745 66.8457 160.365 67.4121 159.336 68.5449C158.307 69.6777 157.695 71.2598 157.5 73.291H168.828C168.815 72.015 168.613 70.8952 168.223 69.9316C167.845 68.9551 167.266 68.1999 166.484 67.666C165.703 67.1191 164.701 66.8457 163.477 66.8457Z" fill="#1F1F1F"/>
<path d="M182.832 75.0293L175.43 64.5801H179.141L184.785 72.8223L190.41 64.5801H194.082L186.68 75.0293L194.492 85.9863H190.781L184.785 77.2559L178.75 85.9863H175.078L182.832 75.0293Z" fill="#1F1F1F"/>
<path d="M206.68 64.2285C209.232 64.2285 211.126 64.8014 212.363 65.9473C213.6 67.0931 214.219 68.9225 214.219 71.4355V85.9863H211.855L211.23 82.8223H211.074C210.475 83.6035 209.85 84.2611 209.199 84.7949C208.548 85.3158 207.793 85.7129 206.934 85.9863C206.087 86.2467 205.046 86.377 203.809 86.377C202.507 86.377 201.348 86.1491 200.332 85.6934C199.329 85.2376 198.535 84.5475 197.949 83.623C197.376 82.6986 197.09 81.5267 197.09 80.1074C197.09 77.972 197.936 76.3314 199.629 75.1855C201.322 74.0397 203.9 73.4147 207.363 73.3105L211.055 73.1543V71.8457C211.055 69.9967 210.658 68.7012 209.863 67.959C209.069 67.2168 207.949 66.8457 206.504 66.8457C205.384 66.8457 204.316 67.0085 203.301 67.334C202.285 67.6595 201.322 68.0436 200.41 68.4863L199.414 66.0254C200.378 65.5306 201.484 65.1074 202.734 64.7559C203.984 64.4043 205.299 64.2285 206.68 64.2285ZM211.016 75.4395L207.754 75.5762C205.085 75.6803 203.203 76.1165 202.109 76.8848C201.016 77.653 200.469 78.7402 200.469 80.1465C200.469 81.3704 200.84 82.2754 201.582 82.8613C202.324 83.4473 203.307 83.7402 204.531 83.7402C206.432 83.7402 207.988 83.2129 209.199 82.1582C210.41 81.1035 211.016 79.5215 211.016 77.4121V75.4395Z" fill="#1F1F1F"/>
<path d="M224.16 64.5801V73.5645H236.094V64.5801H239.336V85.9863H236.094V76.3184H224.16V85.9863H220.898V64.5801H224.16Z" fill="#1F1F1F"/>
<path d="M249.297 64.5801V78.0371C249.297 78.2975 249.29 78.6361 249.277 79.0527C249.264 79.4564 249.245 79.8926 249.219 80.3613C249.193 80.8171 249.167 81.2598 249.141 81.6895C249.128 82.1061 249.108 82.4512 249.082 82.7246L260.762 64.5801H264.746V85.9863H261.719V72.8613C261.719 72.4447 261.725 71.9108 261.738 71.2598C261.751 70.6087 261.771 69.9707 261.797 69.3457C261.823 68.7077 261.842 68.2129 261.855 67.8613L250.215 85.9863H246.211V64.5801H249.297Z" fill="#1F1F1F"/>
<path d="M284.121 64.5801H287.695L278.457 74.9121L288.438 85.9863H284.629L274.902 75.127V85.9863H271.641V64.5801H274.902V74.9707L284.121 64.5801Z" fill="#1F1F1F"/>
<path d="M300.312 64.2285C302.865 64.2285 304.759 64.8014 305.996 65.9473C307.233 67.0931 307.852 68.9225 307.852 71.4355V85.9863H305.488L304.863 82.8223H304.707C304.108 83.6035 303.483 84.2611 302.832 84.7949C302.181 85.3158 301.426 85.7129 300.566 85.9863C299.72 86.2467 298.678 86.377 297.441 86.377C296.139 86.377 294.98 86.1491 293.965 85.6934C292.962 85.2376 292.168 84.5475 291.582 83.623C291.009 82.6986 290.723 81.5267 290.723 80.1074C290.723 77.972 291.569 76.3314 293.262 75.1855C294.954 74.0397 297.533 73.4147 300.996 73.3105L304.688 73.1543V71.8457C304.688 69.9967 304.29 68.7012 303.496 67.959C302.702 67.2168 301.582 66.8457 300.137 66.8457C299.017 66.8457 297.949 67.0085 296.934 67.334C295.918 67.6595 294.954 68.0436 294.043 68.4863L293.047 66.0254C294.01 65.5306 295.117 65.1074 296.367 64.7559C297.617 64.4043 298.932 64.2285 300.312 64.2285ZM304.648 75.4395L301.387 75.5762C298.717 75.6803 296.836 76.1165 295.742 76.8848C294.648 77.653 294.102 78.7402 294.102 80.1465C294.102 81.3704 294.473 82.2754 295.215 82.8613C295.957 83.4473 296.94 83.7402 298.164 83.7402C300.065 83.7402 301.621 83.2129 302.832 82.1582C304.043 81.1035 304.648 79.5215 304.648 77.4121V75.4395Z" fill="#1F1F1F"/>
</svg>
