<svg width="159" height="46" viewBox="0 0 159 46" fill="none" xmlns="http://www.w3.org/2000/svg">
<path d="M0.390235 10.8869V0.931622H36.3677L15.0711 45.0371H3.54063L20.7418 10.8869H0.390235ZM49.2553 22.9844C49.2553 25.0426 49.4443 26.9329 49.8223 28.6551C50.2004 30.3353 50.7465 31.7845 51.4605 33.0026C52.1746 34.1788 53.0147 35.1029 53.9809 35.775C54.989 36.405 56.1021 36.7201 57.3203 36.7201C58.5384 36.7201 59.6306 36.405 60.5967 35.775C61.6048 35.1029 62.4659 34.1788 63.18 33.0026C63.8941 31.7845 64.4402 30.3353 64.8182 28.6551C65.1963 26.9329 65.3853 25.0426 65.3853 22.9844C65.3853 20.9261 65.1963 19.0569 64.8182 17.3767C64.4402 15.6545 63.8941 14.2053 63.18 13.0291C62.4659 11.811 61.6048 10.8869 60.5967 10.2568C59.6306 9.5847 58.5384 9.24866 57.3203 9.24866C56.1021 9.24866 54.989 9.5847 53.9809 10.2568C53.0147 10.8869 52.1746 11.811 51.4605 13.0291C50.7465 14.2053 50.2004 15.6545 49.8223 17.3767C49.4443 19.0569 49.2553 20.9261 49.2553 22.9844ZM38.985 22.9844C38.985 18.1958 39.7411 14.1003 41.2533 10.6978C42.8075 7.29541 44.9707 4.69109 47.7431 2.88487C50.5154 1.03663 53.7078 0.112519 57.3203 0.112519C61.1007 0.112519 64.3562 1.03663 67.0865 2.88487C69.8168 4.69109 71.9171 7.29541 73.3873 10.6978C74.8995 14.1003 75.6556 18.1958 75.6556 22.9844C75.6556 27.773 74.8995 31.8685 73.3873 35.2709C71.9171 38.6733 69.8168 41.2986 67.0865 43.1469C64.3562 44.9531 61.1007 45.8562 57.3203 45.8562C53.7078 45.8562 50.5154 44.9531 47.7431 43.1469C44.9707 41.2986 42.8075 38.6733 41.2533 35.2709C39.7411 31.8685 38.985 27.773 38.985 22.9844ZM90.9734 22.9844C90.9734 25.0426 91.1624 26.9329 91.5404 28.6551C91.9185 30.3353 92.4645 31.7845 93.1786 33.0026C93.8927 34.1788 94.7328 35.1029 95.6989 35.775C96.7071 36.405 97.8202 36.7201 99.0384 36.7201C100.257 36.7201 101.349 36.405 102.315 35.775C103.323 35.1029 104.184 34.1788 104.898 33.0026C105.612 31.7845 106.158 30.3353 106.536 28.6551C106.914 26.9329 107.103 25.0426 107.103 22.9844C107.103 20.9261 106.914 19.0569 106.536 17.3767C106.158 15.6545 105.612 14.2053 104.898 13.0291C104.184 11.811 103.323 10.8869 102.315 10.2568C101.349 9.5847 100.257 9.24866 99.0384 9.24866C97.8202 9.24866 96.7071 9.5847 95.6989 10.2568C94.7328 10.8869 93.8927 11.811 93.1786 13.0291C92.4645 14.2053 91.9185 15.6545 91.5404 17.3767C91.1624 19.0569 90.9734 20.9261 90.9734 22.9844ZM80.7031 22.9844C80.7031 18.1958 81.4592 14.1003 82.9714 10.6978C84.5256 7.29541 86.6888 4.69109 89.4612 2.88487C92.2335 1.03663 95.4259 0.112519 99.0384 0.112519C102.819 0.112519 106.074 1.03663 108.805 2.88487C111.535 4.69109 113.635 7.29541 115.105 10.6978C116.618 14.1003 117.374 18.1958 117.374 22.9844C117.374 27.773 116.618 31.8685 115.105 35.2709C113.635 38.6733 111.535 41.2986 108.805 43.1469C106.074 44.9531 102.819 45.8562 99.0384 45.8562C95.4259 45.8562 92.2335 44.9531 89.4612 43.1469C86.6888 41.2986 84.5256 38.6733 82.9714 35.2709C81.4592 31.8685 80.7031 27.773 80.7031 22.9844ZM123.996 32.6876V23.4884H158.273V32.6876H123.996ZM136.22 11.0129H146.049V45.1631H136.22V11.0129Z" fill="black"/>
</svg>
