<svg width="163" height="46" viewBox="0 0 163 46" fill="none" xmlns="http://www.w3.org/2000/svg">
<path d="M0.760157 45.0371L20.4186 24.6856C21.5947 23.3834 22.6029 22.2073 23.443 21.1571C24.3251 20.107 24.9762 19.0779 25.3962 18.0698C25.8583 17.0196 26.0893 15.9065 26.0893 14.7303C26.0893 14.0583 25.9633 13.3862 25.7113 12.7141C25.4592 12.042 25.0812 11.4539 24.5771 10.9499C24.0731 10.4038 23.443 9.98375 22.6869 9.68971C21.9308 9.35367 21.0487 9.18565 20.0406 9.18565C18.6964 9.18565 17.4992 9.52169 16.4491 10.1938C15.441 10.8659 14.6639 11.811 14.1178 13.0291C13.6138 14.2473 13.3617 15.6545 13.3617 17.2507H2.90242C2.90242 14.1003 3.5535 11.2229 4.85567 8.61858C6.15783 6.01425 8.11107 3.935 10.7154 2.3808C13.3617 0.826609 16.5751 0.049512 20.3556 0.049512C23.0859 0.049512 25.5012 0.469565 27.6015 1.30967C29.7018 2.10777 31.445 3.19991 32.8311 4.58608C34.2593 5.93025 35.3305 7.42143 36.0445 9.05963C36.7586 10.6978 37.1157 12.357 37.1157 14.0373C37.1157 16.4316 36.5276 18.6368 35.3515 20.6531C34.1753 22.6273 32.6421 24.4335 30.7519 26.0717L20.4816 35.2709H38.1238V45.0371H0.760157ZM53.6395 22.9844C53.6395 25.0426 53.8285 26.9329 54.2066 28.6551C54.5846 30.3353 55.1307 31.7845 55.8448 33.0026C56.5588 34.1788 57.399 35.1029 58.3651 35.775C59.3732 36.405 60.4863 36.7201 61.7045 36.7201C62.9226 36.7201 64.0148 36.405 64.9809 35.775C65.989 35.1029 66.8501 34.1788 67.5642 33.0026C68.2783 31.7845 68.8244 30.3353 69.2024 28.6551C69.5805 26.9329 69.7695 25.0426 69.7695 22.9844C69.7695 20.9261 69.5805 19.0569 69.2024 17.3767C68.8244 15.6545 68.2783 14.2053 67.5642 13.0291C66.8501 11.811 65.989 10.8869 64.9809 10.2568C64.0148 9.5847 62.9226 9.24866 61.7045 9.24866C60.4863 9.24866 59.3732 9.5847 58.3651 10.2568C57.399 10.8869 56.5588 11.811 55.8448 13.0291C55.1307 14.2053 54.5846 15.6545 54.2066 17.3767C53.8285 19.0569 53.6395 20.9261 53.6395 22.9844ZM43.3692 22.9844C43.3692 18.1958 44.1253 14.1003 45.6375 10.6978C47.1917 7.29541 49.355 4.69109 52.1273 2.88487C54.8996 1.03663 58.092 0.112519 61.7045 0.112519C65.485 0.112519 68.7404 1.03663 71.4707 2.88487C74.201 4.69109 76.3013 7.29541 77.7715 10.6978C79.2837 14.1003 80.0398 18.1958 80.0398 22.9844C80.0398 27.773 79.2837 31.8685 77.7715 35.2709C76.3013 38.6733 74.201 41.2986 71.4707 43.1469C68.7404 44.9531 65.485 45.8562 61.7045 45.8562C58.092 45.8562 54.8996 44.9531 52.1273 43.1469C49.355 41.2986 47.1917 38.6733 45.6375 35.2709C44.1253 31.8685 43.3692 27.773 43.3692 22.9844ZM95.3576 22.9844C95.3576 25.0426 95.5466 26.9329 95.9246 28.6551C96.3027 30.3353 96.8487 31.7845 97.5628 33.0026C98.2769 34.1788 99.117 35.1029 100.083 35.775C101.091 36.405 102.204 36.7201 103.423 36.7201C104.641 36.7201 105.733 36.405 106.699 35.775C107.707 35.1029 108.568 34.1788 109.282 33.0026C109.996 31.7845 110.542 30.3353 110.92 28.6551C111.299 26.9329 111.488 25.0426 111.488 22.9844C111.488 20.9261 111.299 19.0569 110.92 17.3767C110.542 15.6545 109.996 14.2053 109.282 13.0291C108.568 11.811 107.707 10.8869 106.699 10.2568C105.733 9.5847 104.641 9.24866 103.423 9.24866C102.204 9.24866 101.091 9.5847 100.083 10.2568C99.117 10.8869 98.2769 11.811 97.5628 13.0291C96.8487 14.2053 96.3027 15.6545 95.9246 17.3767C95.5466 19.0569 95.3576 20.9261 95.3576 22.9844ZM85.0873 22.9844C85.0873 18.1958 85.8434 14.1003 87.3556 10.6978C88.9098 7.29541 91.073 4.69109 93.8454 2.88487C96.6177 1.03663 99.8101 0.112519 103.423 0.112519C107.203 0.112519 110.458 1.03663 113.189 2.88487C115.919 4.69109 118.019 7.29541 119.49 10.6978C121.002 14.1003 121.758 18.1958 121.758 22.9844C121.758 27.773 121.002 31.8685 119.49 35.2709C118.019 38.6733 115.919 41.2986 113.189 43.1469C110.458 44.9531 107.203 45.8562 103.423 45.8562C99.8101 45.8562 96.6177 44.9531 93.8454 43.1469C91.073 41.2986 88.9098 38.6733 87.3556 35.2709C85.8434 31.8685 85.0873 27.773 85.0873 22.9844ZM162.405 30.9234C162.405 33.5277 161.88 35.775 160.83 37.6652C159.821 39.5554 158.435 41.1096 156.671 42.3278C154.949 43.5459 153.038 44.449 150.937 45.0371C148.879 45.5832 146.779 45.8562 144.637 45.8562C141.948 45.8562 139.512 45.5832 137.328 45.0371C135.143 44.533 133.211 43.861 131.531 43.0209C129.851 42.1387 128.318 41.1726 126.931 40.1225L131.09 31.3644C132.308 32.3725 133.547 33.2336 134.807 33.9477C136.11 34.6198 137.412 35.1659 138.714 35.5859C140.016 35.964 141.192 36.153 142.242 36.153C144.049 36.153 145.582 35.922 146.842 35.4599C148.102 34.9979 149.068 34.2838 149.74 33.3177C150.412 32.3515 150.748 31.1754 150.748 29.7892C150.748 28.319 150.328 27.1429 149.488 26.2608C148.69 25.3367 147.64 24.6646 146.338 24.2445C145.078 23.8245 143.712 23.6144 142.242 23.6144C141.108 23.6144 139.848 23.6985 138.462 23.8665C137.118 23.9925 135.71 24.2655 134.24 24.6856C132.812 25.0636 131.342 25.6307 129.83 26.3868L136.005 0.931622H161.46V10.1308H143.817L141.297 18.0067C142.473 17.4607 143.691 17.0826 144.952 16.8726C146.254 16.6206 147.598 16.4946 148.984 16.4946C151.336 16.4946 153.521 17.0616 155.537 18.1958C157.595 19.3299 159.254 20.9681 160.515 23.1104C161.775 25.2526 162.405 27.857 162.405 30.9234Z" fill="black"/>
</svg>
